ExpletusSans-Bold.ufo
<glyph name="exclam" format="2">
  <advance width="702"/>
  <unicode hex="0021"/>
  <outline>
    <contour>
      <point x="188" y="460" type="line"/>
      <point x="388" y="460" type="line"/>
      <point x="552" y="1454" type="line" name="hr00"/>
      <point x="272" y="1454" type="line"/>
    </contour>
    <contour>
      <point x="226" y="-28" type="curve" smooth="yes"/>
      <point x="318" y="-28"/>
      <point x="398" y="44"/>
      <point x="410" y="136" type="curve" smooth="yes"/>
      <point x="420" y="228"/>
      <point x="358" y="304"/>
      <point x="266" y="304" type="curve" smooth="yes"/>
      <point x="172" y="304"/>
      <point x="90" y="228"/>
      <point x="80" y="136" type="curve" smooth="yes"/>
      <point x="68" y="44"/>
      <point x="132" y="-28"/>
    </contour>
  </outline>
</glyph>
<glyph name="dollar" format="2">
  <advance width="1028"/>
  <unicode hex="0024"/>
  <outline>
    <contour>
      <point x="392" y="-214" type="line"/>
      <point x="604" y="-214" type="line"/>
      <point x="630" y="-16" type="line"/>
      <point x="864" y="18"/>
      <point x="1030" y="148"/>
      <point x="1056" y="362" type="curve" smooth="yes"/>
      <point x="1110" y="808"/>
      <point x="428" y="812"/>
      <point x="460" y="1074" type="curve" smooth="yes"/>
      <point x="472" y="1160"/>
      <point x="558" y="1224"/>
      <point x="678" y="1224" type="curve" smooth="yes" name="hr00"/>
      <point x="766" y="1224"/>
      <point x="858" y="1210"/>
      <point x="972" y="1178" type="curve"/>
      <point x="1068" y="1360" type="line"/>
      <point x="960" y="1394"/>
      <point x="882" y="1410"/>
      <point x="806" y="1418" type="curve"/>
      <point x="830" y="1620" type="line"/>
      <point x="618" y="1620" type="line"/>
      <point x="594" y="1418" type="line"/>
      <point x="392" y="1392"/>
      <point x="226" y="1276"/>
      <point x="198" y="1058" type="curve" smooth="yes"/>
      <point x="148" y="638"/>
      <point x="826" y="644"/>
      <point x="792" y="366" type="curve" smooth="yes"/>
      <point x="780" y="266"/>
      <point x="666" y="182"/>
      <point x="524" y="182" type="curve" smooth="yes"/>
      <point x="422" y="182"/>
      <point x="296" y="204"/>
      <point x="160" y="268" type="curve"/>
      <point x="60" y="80" type="line"/>
      <point x="196" y="18"/>
      <point x="316" y="-12"/>
      <point x="416" y="-22" type="curve"/>
    </contour>
  </outline>
</glyph>
<glyph name="parenright" format="2">
  <advance width="802"/>
  <unicode hex="0029"/>
  <outline>
    <contour>
      <point x="84" y="-352" type="line"/>
      <point x="418" y="-144"/>
      <point x="500" y="92"/>
      <point x="562" y="592" type="curve"/>
      <point x="622" y="1090"/>
      <point x="598" y="1326"/>
      <point x="316" y="1534" type="curve"/>
      <point x="168" y="1404" type="line"/>
      <point x="372" y="1198"/>
      <point x="370" y="1034"/>
      <point x="316" y="592" type="curve" smooth="yes" name="hr00"/>
      <point x="262" y="148"/>
      <point x="220" y="-18"/>
      <point x="-30" y="-220" type="curve"/>
    </contour>
  </outline>
</glyph>
<glyph name="comma" format="2">
  <advance width="508"/>
  <unicode hex="002C"/>
  <outline>
    <contour>
      <point x="80" y="-256" type="line"/>
      <point x="248" y="-294"/>
      <point x="338" y="-144"/>
      <point x="360" y="40" type="curve" smooth="yes"/>
      <point x="380" y="196" type="line"/>
      <point x="136" y="196" type="line" name="hr00"/>
    </contour>
  </outline>
</glyph>
<glyph name="slash" format="2">
  <advance width="664"/>
  <unicode hex="002F"/>
  <outline>
    <contour>
      <point x="-40" y="-124" type="line" name="hr00"/>
      <point x="200" y="-124" type="line"/>
      <point x="880" y="1454" type="line"/>
      <point x="638" y="1454" type="line"/>
    </contour>
  </outline>
</glyph>
<glyph name="zero" format="2">
  <advance width="1420"/>
  <unicode hex="0030"/>
  <outline>
    <contour>
      <point x="652" y="-38" type="curve" smooth="yes"/>
      <point x="1052" y="-38"/>
      <point x="1288" y="314"/>
      <point x="1334" y="698" type="curve" smooth="yes" name="hr00"/>
      <point x="1378" y="1054"/>
      <point x="1252" y="1438"/>
      <point x="834" y="1438" type="curve" smooth="yes"/>
      <point x="470" y="1438"/>
      <point x="204" y="1140"/>
      <point x="150" y="698" type="curve" smooth="yes"/>
      <point x="94" y="240"/>
      <point x="300" y="-38"/>
    </contour>
    <contour>
      <point x="678" y="166" type="curve" smooth="yes"/>
      <point x="484" y="166"/>
      <point x="414" y="374"/>
      <point x="454" y="698" type="curve" smooth="yes"/>
      <point x="494" y="1024"/>
      <point x="612" y="1234"/>
      <point x="808" y="1234" type="curve" smooth="yes"/>
      <point x="1002" y="1234"/>
      <point x="1070" y="1024"/>
      <point x="1030" y="698" type="curve" smooth="yes"/>
      <point x="990" y="374"/>
      <point x="872" y="166"/>
    </contour>
  </outline>
</glyph>
<glyph name="three" format="2">
  <advance width="1056"/>
  <unicode hex="0033"/>
  <outline>
    <contour>
      <point x="412" y="-22" type="curve" smooth="yes"/>
      <point x="702" y="-22"/>
      <point x="964" y="138"/>
      <point x="994" y="388" type="curve" smooth="yes"/>
      <point x="1016" y="562"/>
      <point x="922" y="696"/>
      <point x="782" y="754" type="curve"/>
      <point x="736" y="764" type="line"/>
      <point x="790" y="784" type="line"/>
      <point x="936" y="868"/>
      <point x="1018" y="974"/>
      <point x="1034" y="1092" type="curve" smooth="yes" name="hr00"/>
      <point x="1058" y="1302"/>
      <point x="878" y="1424"/>
      <point x="628" y="1424" type="curve" smooth="yes"/>
      <point x="518" y="1424"/>
      <point x="392" y="1406"/>
      <point x="230" y="1342" type="curve"/>
      <point x="274" y="1156" type="line"/>
      <point x="404" y="1206"/>
      <point x="484" y="1220"/>
      <point x="560" y="1220" type="curve" smooth="yes"/>
      <point x="666" y="1220"/>
      <point x="748" y="1170"/>
      <point x="738" y="1078" type="curve"/>
      <point x="724" y="964"/>
      <point x="608" y="900"/>
      <point x="416" y="822" type="curve" smooth="yes"/>
      <point x="342" y="792" type="line"/>
      <point x="340" y="622" type="line"/>
      <point x="564" y="622"/>
      <point x="724" y="572"/>
      <point x="702" y="392" type="curve" smooth="yes"/>
      <point x="684" y="256"/>
      <point x="534" y="182"/>
      <point x="394" y="182" type="curve" smooth="yes"/>
      <point x="314" y="182"/>
      <point x="222" y="198"/>
      <point x="106" y="252" type="curve"/>
      <point x="18" y="70" type="line"/>
      <point x="138" y="14"/>
      <point x="266" y="-22"/>
    </contour>
  </outline>
</glyph>
<glyph name="four" format="2">
  <advance width="1190"/>
  <unicode hex="0034"/>
  <outline>
    <contour>
      <point x="700" y="0" type="line"/>
      <point x="966" y="0" type="line"/>
      <point x="1000" y="282" type="line"/>
      <point x="1162" y="282" type="line"/>
      <point x="1186" y="484" type="line"/>
      <point x="1024" y="484" type="line"/>
      <point x="1138" y="1402" type="line"/>
      <point x="802" y="1402" type="line"/>
      <point x="104" y="476" type="line"/>
      <point x="80" y="282" type="line"/>
      <point x="662" y="282" type="line"/>
      <point x="646" y="372"/>
      <point x="602" y="484"/>
      <point x="486" y="484" type="curve" name="hr00"/>
      <point x="414" y="484" type="line"/>
      <point x="372" y="482" type="line"/>
      <point x="410" y="522" type="line"/>
      <point x="802" y="1046" type="line"/>
      <point x="838" y="1102" type="line"/>
      <point x="826" y="1036" type="line"/>
    </contour>
  </outline>
</glyph>
<glyph name="five" format="2">
  <advance width="1074"/>
  <unicode hex="0035"/>
  <outline>
    <contour>
      <point x="410" y="-24" type="curve" smooth="yes"/>
      <point x="732" y="-24"/>
      <point x="998" y="156"/>
      <point x="1032" y="426" type="curve" smooth="yes"/>
      <point x="1062" y="672"/>
      <point x="888" y="866"/>
      <point x="560" y="866" type="curve"/>
      <point x="544" y="866"/>
      <point x="522" y="866"/>
      <point x="496" y="864" type="curve"/>
      <point x="458" y="856" type="line"/>
      <point x="468" y="884" type="line" name="hr00"/>
      <point x="526" y="1184" type="line"/>
      <point x="1064" y="1184" type="line"/>
      <point x="1092" y="1402" type="line"/>
      <point x="330" y="1402" type="line"/>
      <point x="186" y="636" type="line"/>
      <point x="312" y="658"/>
      <point x="398" y="664"/>
      <point x="466" y="664" type="curve"/>
      <point x="642" y="664"/>
      <point x="756" y="580"/>
      <point x="738" y="430" type="curve" smooth="yes"/>
      <point x="722" y="304"/>
      <point x="604" y="180"/>
      <point x="434" y="180" type="curve" smooth="yes"/>
      <point x="360" y="180"/>
      <point x="268" y="200"/>
      <point x="136" y="254" type="curve"/>
      <point x="48" y="72" type="line"/>
      <point x="192" y="-6"/>
      <point x="308" y="-24"/>
    </contour>
  </outline>
</glyph>
<glyph name="six" format="2">
  <advance width="1250"/>
  <unicode hex="0036"/>
  <outline>
    <contour>
      <point x="676" y="-32" type="curve" smooth="yes"/>
      <point x="990" y="-32"/>
      <point x="1210" y="216"/>
      <point x="1238" y="448" type="curve" smooth="yes"/>
      <point x="1272" y="732"/>
      <point x="1098" y="884"/>
      <point x="872" y="884" type="curve" smooth="yes"/>
      <point x="806" y="884"/>
      <point x="710" y="866"/>
      <point x="586" y="806" type="curve"/>
      <point x="612" y="742"/>
      <point x="660" y="660"/>
      <point x="754" y="674" type="curve"/>
      <point x="778" y="678"/>
      <point x="802" y="680"/>
      <point x="816" y="680" type="curve" smooth="yes"/>
      <point x="896" y="680"/>
      <point x="962" y="608"/>
      <point x="942" y="448" type="curve" smooth="yes"/>
      <point x="924" y="294"/>
      <point x="812" y="170"/>
      <point x="694" y="170" type="curve" smooth="yes"/>
      <point x="480" y="170"/>
      <point x="452" y="438"/>
      <point x="480" y="658" type="curve" smooth="yes"/>
      <point x="518" y="964"/>
      <point x="692" y="1216"/>
      <point x="976" y="1216" type="curve" name="hr00"/>
      <point x="1028" y="1216"/>
      <point x="1090" y="1210"/>
      <point x="1168" y="1186" type="curve"/>
      <point x="1256" y="1372" type="line"/>
      <point x="1162" y="1404"/>
      <point x="1068" y="1420"/>
      <point x="1002" y="1420" type="curve"/>
      <point x="568" y="1420"/>
      <point x="236" y="1062"/>
      <point x="186" y="654" type="curve" smooth="yes"/>
      <point x="140" y="284"/>
      <point x="272" y="-32"/>
    </contour>
  </outline>
</glyph>
<glyph name="seven" format="2">
  <advance width="1006"/>
  <unicode hex="0037"/>
  <outline>
    <contour>
      <point x="210" y="0" type="curve" name="hr00"/>
      <point x="500" y="0" type="line"/>
      <point x="636" y="622"/>
      <point x="846" y="928"/>
      <point x="1100" y="1208" type="curve"/>
      <point x="1124" y="1402" type="line"/>
      <point x="248" y="1402" type="line"/>
      <point x="220" y="1174" type="line"/>
      <point x="746" y="1174" type="line"/>
      <point x="796" y="1178" type="line"/>
      <point x="762" y="1148" type="line"/>
      <point x="482" y="790"/>
      <point x="326" y="456"/>
    </contour>
  </outline>
</glyph>
<glyph name="eight" format="2">
  <advance width="1324"/>
  <unicode hex="0038"/>
  <outline>
    <contour>
      <point x="672" y="-26" type="curve" smooth="yes"/>
      <point x="964" y="-26"/>
      <point x="1206" y="112"/>
      <point x="1236" y="356" type="curve" smooth="yes"/>
      <point x="1258" y="528"/>
      <point x="1182" y="634"/>
      <point x="1078" y="710" type="curve"/>
      <point x="1046" y="726" type="line"/>
      <point x="1090" y="756" type="line"/>
      <point x="1196" y="866"/>
      <point x="1266" y="968"/>
      <point x="1278" y="1062" type="curve" smooth="yes" name="hr00"/>
      <point x="1306" y="1292"/>
      <point x="1122" y="1428"/>
      <point x="856" y="1428" type="curve" smooth="yes"/>
      <point x="598" y="1428"/>
      <point x="368" y="1292"/>
      <point x="340" y="1062" type="curve" smooth="yes"/>
      <point x="282" y="592"/>
      <point x="994" y="664"/>
      <point x="956" y="356" type="curve" smooth="yes"/>
      <point x="944" y="258"/>
      <point x="846" y="176"/>
      <point x="696" y="176" type="curve" smooth="yes"/>
      <point x="552" y="176"/>
      <point x="460" y="244"/>
      <point x="474" y="356" type="curve" smooth="yes"/>
      <point x="478" y="386"/>
      <point x="486" y="406"/>
      <point x="504" y="444" type="curve" smooth="yes"/>
      <point x="536" y="532"/>
      <point x="476" y="618"/>
      <point x="414" y="682" type="curve"/>
      <point x="270" y="550"/>
      <point x="216" y="448"/>
      <point x="204" y="356" type="curve" smooth="yes"/>
      <point x="174" y="112"/>
      <point x="372" y="-26"/>
    </contour>
    <contour>
      <point x="876" y="820" type="curve"/>
      <point x="732" y="888"/>
      <point x="604" y="944"/>
      <point x="620" y="1062" type="curve" smooth="yes"/>
      <point x="632" y="1170"/>
      <point x="724" y="1224"/>
      <point x="832" y="1224" type="curve" smooth="yes"/>
      <point x="934" y="1224"/>
      <point x="1018" y="1172"/>
      <point x="1002" y="1040" type="curve"/>
      <point x="992" y="974"/>
      <point x="952" y="898"/>
    </contour>
  </outline>
</glyph>
<glyph name="nine" format="2">
  <advance width="1248"/>
  <unicode hex="0039"/>
  <outline>
    <contour>
      <point x="458" y="-20" type="curve"/>
      <point x="892" y="-20"/>
      <point x="1224" y="336"/>
      <point x="1274" y="746" type="curve" smooth="yes"/>
      <point x="1320" y="1116"/>
      <point x="1188" y="1432"/>
      <point x="784" y="1432" type="curve" smooth="yes"/>
      <point x="468" y="1432"/>
      <point x="250" y="1184"/>
      <point x="222" y="952" type="curve" smooth="yes"/>
      <point x="188" y="668"/>
      <point x="360" y="516"/>
      <point x="588" y="516" type="curve" smooth="yes"/>
      <point x="654" y="516"/>
      <point x="750" y="534"/>
      <point x="874" y="594" type="curve"/>
      <point x="848" y="658"/>
      <point x="798" y="740"/>
      <point x="706" y="726" type="curve"/>
      <point x="682" y="722"/>
      <point x="656" y="720"/>
      <point x="644" y="720" type="curve" smooth="yes"/>
      <point x="564" y="720"/>
      <point x="498" y="792"/>
      <point x="518" y="952" type="curve" smooth="yes"/>
      <point x="536" y="1104"/>
      <point x="648" y="1228"/>
      <point x="766" y="1228" type="curve" smooth="yes"/>
      <point x="980" y="1228"/>
      <point x="1006" y="960"/>
      <point x="980" y="742" type="curve" smooth="yes"/>
      <point x="942" y="436"/>
      <point x="768" y="184"/>
      <point x="484" y="184" type="curve" name="hr00"/>
      <point x="432" y="184"/>
      <point x="370" y="190"/>
      <point x="292" y="212" type="curve"/>
      <point x="204" y="28" type="line"/>
      <point x="296" y="-6"/>
      <point x="392" y="-20"/>
    </contour>
  </outline>
</glyph>
<glyph name="equal" format="2">
  <advance width="1212"/>
  <unicode hex="003D"/>
  <outline>
    <contour>
      <point x="226" y="764" type="line"/>
      <point x="1170" y="764" type="line"/>
      <point x="1194" y="960" type="line"/>
      <point x="250" y="960" type="line"/>
    </contour>
    <contour>
      <point x="172" y="322" type="line"/>
      <point x="1116" y="322" type="line"/>
      <point x="1140" y="518" type="line"/>
      <point x="196" y="518" type="line" name="hr00"/>
    </contour>
  </outline>
</glyph>
<glyph name="G" format="2">
  <advance width="1448"/>
  <unicode hex="0047"/>
  <anchor x="808" y="0" name="bottom"/>
  <anchor x="988" y="1454" name="top"/>
  <outline>
    <contour>
      <point x="872" y="-24" type="curve" smooth="yes"/>
      <point x="984" y="-24"/>
      <point x="1178" y="8"/>
      <point x="1332" y="74" type="curve"/>
      <point x="1406" y="674" type="line"/>
      <point x="1150" y="674" type="line"/>
      <point x="1092" y="204" type="line"/>
      <point x="1006" y="184"/>
      <point x="956" y="182"/>
      <point x="898" y="182" type="curve" smooth="yes"/>
      <point x="580" y="182"/>
      <point x="442" y="450"/>
      <point x="476" y="726" type="curve" smooth="yes"/>
      <point x="512" y="1016"/>
      <point x="720" y="1274"/>
      <point x="1038" y="1274" type="curve" smooth="yes" name="hr00"/>
      <point x="1130" y="1274"/>
      <point x="1234" y="1258"/>
      <point x="1376" y="1200" type="curve"/>
      <point x="1474" y="1392" type="line"/>
      <point x="1330" y="1456"/>
      <point x="1174" y="1480"/>
      <point x="1062" y="1480" type="curve" smooth="yes"/>
      <point x="574" y="1480"/>
      <point x="224" y="1146"/>
      <point x="172" y="726" type="curve" smooth="yes"/>
      <point x="120" y="308"/>
      <point x="378" y="-24"/>
    </contour>
  </outline>
</glyph>
<glyph name="I" format="2">
  <advance width="612"/>
  <unicode hex="0049"/>
  <anchor x="306" y="0" name="bottom"/>
  <anchor x="444" y="0" name="ogonek"/>
  <anchor x="484" y="1454" name="top"/>
  <anchor x="156" y="1454" name="topleft"/>
  <outline>
    <contour>
      <point x="166" y="0" type="line"/>
      <point x="444" y="0" type="line" name="hr00"/>
      <point x="622" y="1454" type="line"/>
      <point x="344" y="1454" type="line"/>
    </contour>
  </outline>
</glyph>
<glyph name="K" format="2">
  <advance width="1418"/>
  <unicode hex="004B"/>
  <anchor x="730" y="0" name="bottom"/>
  <anchor x="902" y="1454" name="top"/>
  <outline>
    <contour>
      <point x="1058" y="0" type="line"/>
      <point x="1386" y="0" type="line"/>
      <point x="974" y="872" type="line" name="hr00"/>
      <point x="1494" y="1454" type="line"/>
      <point x="1180" y="1454" type="line"/>
      <point x="794" y="994" type="line" smooth="yes"/>
      <point x="684" y="866"/>
      <point x="600" y="664"/>
      <point x="624" y="486" type="curve"/>
      <point x="770" y="648" type="line"/>
      <point x="800" y="692" type="line"/>
      <point x="808" y="644" type="line"/>
    </contour>
    <contour>
      <point x="166" y="0" type="line"/>
      <point x="452" y="0" type="line"/>
      <point x="630" y="1454" type="line"/>
      <point x="344" y="1454" type="line"/>
    </contour>
  </outline>
</glyph>
<glyph name="L" format="2">
  <advance width="1062"/>
  <unicode hex="004C"/>
  <anchor x="570" y="0" name="bottom"/>
  <anchor x="398" y="728" name="center"/>
  <anchor x="486" y="1454" name="top"/>
  <anchor x="1138" y="1454" name="topright"/>
  <outline>
    <contour>
      <point x="164" y="0" type="line"/>
      <point x="976" y="0" type="line"/>
      <point x="1000" y="208" type="line"/>
      <point x="476" y="208" type="line"/>
      <point x="630" y="1454" type="line"/>
      <point x="342" y="1454" type="line" name="hr00"/>
    </contour>
  </outline>
</glyph>
<glyph name="M" format="2">
  <advance width="1964"/>
  <unicode hex="004D"/>
  <anchor x="980" y="0" name="bottom"/>
  <anchor x="1156" y="1454" name="top"/>
  <outline>
    <contour>
      <point x="148" y="0" type="line"/>
      <point x="410" y="0" type="line"/>
      <point x="618" y="1098" type="line"/>
      <point x="636" y="1192" type="line"/>
      <point x="648" y="1098" type="line"/>
      <point x="836" y="20" type="line"/>
      <point x="1130" y="20" type="line"/>
      <point x="1578" y="1096" type="line"/>
      <point x="1614" y="1192" type="line"/>
      <point x="1608" y="1096" type="line"/>
      <point x="1552" y="0" type="line"/>
      <point x="1814" y="0" type="line"/>
      <point x="1856" y="1454" type="line"/>
      <point x="1492" y="1454" type="line"/>
      <point x="1038" y="332" type="line"/>
      <point x="1012" y="260" type="line"/>
      <point x="1008" y="332" type="line"/>
      <point x="828" y="1454" type="line"/>
      <point x="466" y="1454" type="line" name="hr00"/>
    </contour>
  </outline>
</glyph>
<glyph name="O" format="2">
  <advance width="1578"/>
  <unicode hex="004F"/>
  <anchor x="808" y="0" name="bottom"/>
  <anchor x="898" y="728" name="center"/>
  <anchor x="1358" y="20" name="ogonek"/>
  <anchor x="988" y="1454" name="top"/>
  <anchor x="156" y="1454" name="topleft"/>
  <anchor x="1654" y="1454" name="topright"/>
  <outline>
    <contour>
      <point x="806" y="-28" type="curve"/>
      <point x="1270" y="-28"/>
      <point x="1572" y="336"/>
      <point x="1620" y="728" type="curve"/>
      <point x="1664" y="1082"/>
      <point x="1514" y="1484"/>
      <point x="992" y="1484" type="curve"/>
      <point x="534" y="1484"/>
      <point x="226" y="1146"/>
      <point x="174" y="728" type="curve"/>
      <point x="122" y="298"/>
      <point x="344" y="-28"/>
    </contour>
    <contour>
      <point x="830" y="178" type="curve"/>
      <point x="554" y="178"/>
      <point x="444" y="452"/>
      <point x="478" y="728" type="curve"/>
      <point x="514" y="1024"/>
      <point x="690" y="1278"/>
      <point x="966" y="1278" type="curve" name="hr00"/>
      <point x="1230" y="1278"/>
      <point x="1356" y="1042"/>
      <point x="1318" y="728" type="curve"/>
      <point x="1276" y="378"/>
      <point x="1050" y="178"/>
    </contour>
  </outline>
</glyph>
<glyph name="P" format="2">
  <advance width="1286"/>
  <unicode hex="0050"/>
  <anchor x="310" y="0" name="bottom"/>
  <anchor x="760" y="1454" name="top"/>
  <outline>
    <contour>
      <point x="166" y="0" type="line"/>
      <point x="454" y="0" type="line"/>
      <point x="608" y="1264" type="line"/>
      <point x="682" y="1272"/>
      <point x="706" y="1276"/>
      <point x="778" y="1276" type="curve" smooth="yes"/>
      <point x="944" y="1276"/>
      <point x="1042" y="1164"/>
      <point x="1024" y="1026" type="curve"/>
      <point x="1010" y="896"/>
      <point x="906" y="788"/>
      <point x="794" y="778" type="curve" smooth="yes"/>
      <point x="704" y="770"/>
      <point x="640" y="672"/>
      <point x="600" y="596" type="curve"/>
      <point x="672" y="574"/>
      <point x="740" y="572"/>
      <point x="800" y="578" type="curve" smooth="yes"/>
      <point x="1040" y="600"/>
      <point x="1286" y="760"/>
      <point x="1318" y="1026" type="curve" smooth="yes" name="hr00"/>
      <point x="1354" y="1308"/>
      <point x="1126" y="1482"/>
      <point x="802" y="1482" type="curve"/>
      <point x="658" y="1482"/>
      <point x="562" y="1472"/>
      <point x="342" y="1436" type="curve"/>
    </contour>
  </outline>
</glyph>
<glyph name="backslash" format="2">
  <advance width="664"/>
  <unicode hex="005C"/>
  <outline>
    <contour>
      <point x="444" y="-124" type="line" name="hr00"/>
      <point x="686" y="-124" type="line"/>
      <point x="394" y="1454" type="line"/>
      <point x="152" y="1454" type="line"/>
    </contour>
  </outline>
</glyph>
<glyph name="d" format="2">
  <advance width="1238"/>
  <unicode hex="0064"/>
  <anchor x="556" y="0" name="bottom"/>
  <anchor x="978" y="1270" name="center"/>
  <anchor x="1126" y="1516" name="top"/>
  <anchor x="1390" y="1516" name="topright"/>
  <outline>
    <contour>
      <point x="518" y="-26" type="curve"/>
      <point x="596" y="-26"/>
      <point x="680" y="2"/>
      <point x="794" y="96" type="curve"/>
      <point x="834" y="140" type="line"/>
      <point x="838" y="94" type="line"/>
      <point x="848" y="56"/>
      <point x="866" y="18"/>
      <point x="898" y="0" type="curve" name="hr01"/>
      <point x="1114" y="10" type="line"/>
      <point x="1102" y="104"/>
      <point x="1104" y="188"/>
      <point x="1114" y="262" type="curve"/>
      <point x="1266" y="1502" type="line"/>
      <point x="990" y="1516" type="line"/>
      <point x="842" y="320" type="line"/>
      <point x="746" y="224"/>
      <point x="670" y="180"/>
      <point x="594" y="180" type="curve"/>
      <point x="460" y="180"/>
      <point x="400" y="338"/>
      <point x="424" y="524" type="curve"/>
      <point x="446" y="712"/>
      <point x="520" y="846"/>
      <point x="686" y="856" type="curve" smooth="yes"/>
      <point x="752" y="862"/>
      <point x="808" y="924"/>
      <point x="856" y="1016" type="curve"/>
      <point x="756" y="1046"/>
      <point x="700" y="1052"/>
      <point x="632" y="1052" type="curve" smooth="yes"/>
      <point x="402" y="1052"/>
      <point x="162" y="806"/>
      <point x="128" y="524" type="curve"/>
      <point x="88" y="208"/>
      <point x="228" y="-26"/>
    </contour>
  </outline>
</glyph>
<glyph name="e" format="2">
  <advance width="1128"/>
  <unicode hex="0065"/>
  <anchor x="590" y="0" name="bottom"/>
  <anchor x="832" y="0" name="ogonek"/>
  <anchor x="718" y="1034" name="top"/>
  <outline>
    <contour>
      <point x="614" y="-26" type="curve" smooth="yes"/>
      <point x="738" y="-26"/>
      <point x="866" y="0"/>
      <point x="1018" y="68" type="curve"/>
      <point x="970" y="254" type="line"/>
      <point x="848" y="202"/>
      <point x="762" y="180"/>
      <point x="670" y="180" type="curve" smooth="yes"/>
      <point x="502" y="180"/>
      <point x="404" y="314"/>
      <point x="432" y="544" type="curve" smooth="yes"/>
      <point x="460" y="772"/>
      <point x="596" y="866"/>
      <point x="706" y="866" type="curve" smooth="yes"/>
      <point x="828" y="866"/>
      <point x="884" y="756"/>
      <point x="852" y="634" type="curve" name="hr00"/>
      <point x="674" y="634" type="line"/>
      <point x="606" y="634"/>
      <point x="538" y="562"/>
      <point x="498" y="470" type="curve"/>
      <point x="1058" y="470" type="line"/>
      <point x="1218" y="814"/>
      <point x="1040" y="1060"/>
      <point x="744" y="1060" type="curve" smooth="yes"/>
      <point x="454" y="1060"/>
      <point x="196" y="864"/>
      <point x="154" y="534" type="curve" smooth="yes"/>
      <point x="122" y="264"/>
      <point x="248" y="-26"/>
    </contour>
  </outline>
</glyph>
<glyph name="f" format="2">
  <advance width="874"/>
  <unicode hex="0066"/>
  <anchor x="342" y="0" name="bottom"/>
  <anchor x="816" y="1516" name="top"/>
  <outline>
    <contour>
      <point x="210" y="0" type="line"/>
      <point x="474" y="0" type="line"/>
      <point x="606" y="1090" type="line" smooth="yes"/>
      <point x="624" y="1228"/>
      <point x="710" y="1320"/>
      <point x="840" y="1320" type="curve" smooth="yes"/>
      <point x="886" y="1320"/>
      <point x="934" y="1310"/>
      <point x="1010" y="1288" type="curve"/>
      <point x="1094" y="1466" type="line"/>
      <point x="994" y="1512"/>
      <point x="900" y="1526"/>
      <point x="834" y="1526" type="curve" smooth="yes"/>
      <point x="566" y="1526"/>
      <point x="376" y="1352"/>
      <point x="342" y="1090" type="curve" smooth="yes"/>
      <point x="336" y="1034" type="line"/>
      <point x="166" y="994" type="line"/>
      <point x="146" y="836" type="line"/>
      <point x="312" y="836" type="line" name="hr00"/>
    </contour>
    <contour>
      <point x="644" y="836" type="curve"/>
      <point x="932" y="836" type="line"/>
      <point x="956" y="1034" type="line"/>
      <point x="868" y="1034" type="line"/>
      <point x="752" y="1034"/>
      <point x="680" y="924"/>
    </contour>
  </outline>
</glyph>
<glyph name="g" format="2">
  <advance width="1182"/>
  <unicode hex="0067"/>
  <anchor x="514" y="-482" name="bottom"/>
  <anchor x="736" y="1034" name="top"/>
  <outline>
    <contour>
      <point x="466" y="-500" type="curve" smooth="yes"/>
      <point x="758" y="-500"/>
      <point x="1012" y="-366"/>
      <point x="1058" y="0" type="curve"/>
      <point x="1180" y="998" type="line"/>
      <point x="988" y="1048"/>
      <point x="888" y="1058"/>
      <point x="774" y="1058" type="curve" smooth="yes"/>
      <point x="418" y="1058"/>
      <point x="178" y="798"/>
      <point x="140" y="480" type="curve"/>
      <point x="110" y="242"/>
      <point x="232" y="-32"/>
      <point x="488" y="-18" type="curve" smooth="yes"/>
      <point x="556" y="-14"/>
      <point x="642" y="20"/>
      <point x="720" y="64" type="curve"/>
      <point x="680" y="138"/>
      <point x="646" y="200"/>
      <point x="566" y="194" type="curve" smooth="yes"/>
      <point x="432" y="184"/>
      <point x="422" y="352"/>
      <point x="438" y="480" type="curve" name="hr00"/>
      <point x="464" y="700"/>
      <point x="580" y="852"/>
      <point x="762" y="852" type="curve" smooth="yes"/>
      <point x="790" y="852"/>
      <point x="838" y="848"/>
      <point x="888" y="836" type="curve"/>
      <point x="782" y="-22" type="line"/>
      <point x="760" y="-206"/>
      <point x="622" y="-300"/>
      <point x="474" y="-300" type="curve" smooth="yes"/>
      <point x="390" y="-300"/>
      <point x="300" y="-284"/>
      <point x="172" y="-230" type="curve"/>
      <point x="80" y="-416" type="line"/>
      <point x="228" y="-484"/>
      <point x="362" y="-500"/>
    </contour>
  </outline>
</glyph>
<glyph name="j" format="2">
  <advance width="590"/>
  <unicode hex="006A"/>
  <outline>
    <contour>
      <point x="-12" y="-498" type="line"/>
      <point x="318" y="-294"/>
      <point x="424" y="-156"/>
      <point x="454" y="96" type="curve"/>
      <point x="570" y="1034" type="line"/>
      <point x="292" y="1034" type="line"/>
      <point x="176" y="96" type="line" smooth="yes"/>
      <point x="152" y="-100"/>
      <point x="104" y="-182"/>
      <point x="-112" y="-352" type="curve"/>
    </contour>
    <contour>
      <point x="448" y="1170" type="curve" smooth="yes"/>
      <point x="542" y="1170"/>
      <point x="624" y="1242"/>
      <point x="634" y="1334" type="curve" smooth="yes"/>
      <point x="646" y="1428"/>
      <point x="584" y="1502"/>
      <point x="490" y="1502" type="curve" smooth="yes" name="hr01"/>
      <point x="398" y="1502"/>
      <point x="316" y="1428"/>
      <point x="304" y="1334" type="curve" smooth="yes"/>
      <point x="294" y="1242"/>
      <point x="356" y="1170"/>
    </contour>
  </outline>
</glyph>
<glyph name="m" format="2">
  <advance width="1860"/>
  <unicode hex="006D"/>
  <anchor x="928" y="0" name="bottom"/>
  <anchor x="1056" y="1034" name="top"/>
  <outline>
    <contour>
      <point x="1426" y="0" type="line"/>
      <point x="1704" y="0" type="line"/>
      <point x="1794" y="738" type="line" smooth="yes"/>
      <point x="1820" y="956"/>
      <point x="1688" y="1060"/>
      <point x="1550" y="1060" type="curve" smooth="yes"/>
      <point x="1456" y="1060"/>
      <point x="1360" y="1034"/>
      <point x="1206" y="974" type="curve"/>
      <point x="1234" y="902"/>
      <point x="1278" y="832"/>
      <point x="1342" y="836" type="curve" smooth="yes"/>
      <point x="1376" y="838"/>
      <point x="1406" y="848"/>
      <point x="1430" y="848" type="curve" smooth="yes"/>
      <point x="1504" y="848"/>
      <point x="1524" y="800"/>
      <point x="1516" y="734" type="curve"/>
    </contour>
    <contour>
      <point x="150" y="0" type="line"/>
      <point x="430" y="0" type="line"/>
      <point x="528" y="814" type="line" smooth="yes"/>
      <point x="538" y="894"/>
      <point x="534" y="962"/>
      <point x="478" y="1034" type="curve"/>
      <point x="244" y="1024" type="line"/>
      <point x="254" y="930"/>
      <point x="252" y="846"/>
      <point x="244" y="772" type="curve" smooth="yes"/>
    </contour>
    <contour>
      <point x="788" y="0" type="line"/>
      <point x="1068" y="0" type="line"/>
      <point x="1158" y="738" type="line" smooth="yes"/>
      <point x="1184" y="956"/>
      <point x="1066" y="1060"/>
      <point x="928" y="1060" type="curve" smooth="yes"/>
      <point x="834" y="1060"/>
      <point x="744" y="1034"/>
      <point x="592" y="976" type="curve"/>
      <point x="620" y="904"/>
      <point x="660" y="834"/>
      <point x="724" y="838" type="curve" smooth="yes" name="hr01"/>
      <point x="756" y="840"/>
      <point x="780" y="848"/>
      <point x="804" y="848" type="curve" smooth="yes"/>
      <point x="872" y="848"/>
      <point x="886" y="800"/>
      <point x="878" y="734" type="curve"/>
    </contour>
  </outline>
</glyph>
<glyph name="n" format="2">
  <advance width="1156"/>
  <unicode hex="006E"/>
  <anchor x="570" y="0" name="bottom"/>
  <anchor x="692" y="1034" name="top"/>
  <outline>
    <contour>
      <point x="752" y="0" type="line"/>
      <point x="1030" y="0" type="line"/>
      <point x="1120" y="738" type="line" smooth="yes"/>
      <point x="1146" y="956"/>
      <point x="1020" y="1060"/>
      <point x="882" y="1060" type="curve" smooth="yes"/>
      <point x="790" y="1060"/>
      <point x="692" y="1038"/>
      <point x="552" y="968" type="curve"/>
      <point x="582" y="904"/>
      <point x="614" y="832"/>
      <point x="678" y="836" type="curve" name="hr01"/>
      <point x="716" y="838"/>
      <point x="738" y="848"/>
      <point x="764" y="848" type="curve" smooth="yes"/>
      <point x="832" y="848"/>
      <point x="850" y="800"/>
      <point x="842" y="734" type="curve"/>
    </contour>
    <contour>
      <point x="106" y="0" type="line"/>
      <point x="386" y="0" type="line"/>
      <point x="484" y="814" type="line" smooth="yes"/>
      <point x="494" y="894"/>
      <point x="488" y="962"/>
      <point x="432" y="1034" type="curve"/>
      <point x="198" y="1024" type="line"/>
      <point x="208" y="930"/>
      <point x="208" y="846"/>
      <point x="200" y="772" type="curve" smooth="yes"/>
    </contour>
  </outline>
</glyph>
<glyph name="q" format="2">
  <advance width="1210"/>
  <unicode hex="0071"/>
  <anchor x="874" y="-482" name="bottom"/>
  <anchor x="788" y="1034" name="top"/>
  <outline>
    <contour>
      <point x="740" y="-468" type="line"/>
      <point x="1010" y="-482" type="line"/>
      <point x="1192" y="998" type="line"/>
      <point x="998" y="1048"/>
      <point x="898" y="1058"/>
      <point x="786" y="1058" type="curve" smooth="yes"/>
      <point x="428" y="1058"/>
      <point x="188" y="798"/>
      <point x="150" y="480" type="curve" smooth="yes"/>
      <point x="120" y="242"/>
      <point x="244" y="-32"/>
      <point x="498" y="-18" type="curve" smooth="yes"/>
      <point x="566" y="-14"/>
      <point x="652" y="20"/>
      <point x="732" y="64" type="curve"/>
      <point x="690" y="138"/>
      <point x="656" y="200"/>
      <point x="578" y="194" type="curve" smooth="yes" name="hr00"/>
      <point x="442" y="184"/>
      <point x="432" y="352"/>
      <point x="448" y="480" type="curve" smooth="yes"/>
      <point x="474" y="700"/>
      <point x="590" y="852"/>
      <point x="772" y="852" type="curve" smooth="yes"/>
      <point x="800" y="852"/>
      <point x="848" y="848"/>
      <point x="900" y="836" type="curve"/>
    </contour>
  </outline>
</glyph>
<glyph name="r" format="2">
  <advance width="782"/>
  <unicode hex="0072"/>
  <anchor x="264" y="0" name="bottom"/>
  <anchor x="546" y="1034" name="top"/>
  <outline>
    <contour>
      <point x="132" y="0" type="line"/>
      <point x="394" y="0" type="line"/>
      <point x="452" y="482" type="line" smooth="yes"/>
      <point x="476" y="680"/>
      <point x="576" y="824"/>
      <point x="712" y="824" type="curve" smooth="yes"/>
      <point x="744" y="824"/>
      <point x="776" y="820"/>
      <point x="828" y="804" type="curve"/>
      <point x="888" y="1030" type="line"/>
      <point x="842" y="1046"/>
      <point x="802" y="1054"/>
      <point x="760" y="1054" type="curve" smooth="yes" name="hr01"/>
      <point x="674" y="1054"/>
      <point x="572" y="992"/>
      <point x="506" y="886" type="curve"/>
      <point x="480" y="838" type="line"/>
      <point x="482" y="886" type="line"/>
      <point x="480" y="954"/>
      <point x="458" y="1016"/>
      <point x="438" y="1034" type="curve"/>
      <point x="224" y="1024" type="line"/>
      <point x="236" y="930"/>
      <point x="234" y="846"/>
      <point x="226" y="772" type="curve" smooth="yes" name="hr02"/>
    </contour>
  </outline>
</glyph>
<glyph name="s" format="2">
  <advance width="872"/>
  <unicode hex="0073"/>
  <anchor x="416" y="0" name="bottom"/>
  <anchor x="578" y="1034" name="top"/>
  <outline>
    <contour>
      <point x="468" y="-20" type="curve" smooth="yes"/>
      <point x="654" y="-20"/>
      <point x="844" y="102"/>
      <point x="868" y="296" type="curve" smooth="yes"/>
      <point x="906" y="606"/>
      <point x="420" y="596"/>
      <point x="442" y="766" type="curve" smooth="yes"/>
      <point x="448" y="822"/>
      <point x="500" y="854"/>
      <point x="576" y="854" type="curve" smooth="yes"/>
      <point x="644" y="854"/>
      <point x="696" y="848"/>
      <point x="796" y="820" type="curve"/>
      <point x="882" y="1000" type="line"/>
      <point x="758" y="1042"/>
      <point x="672" y="1052"/>
      <point x="582" y="1052" type="curve" smooth="yes"/>
      <point x="308" y="1052"/>
      <point x="192" y="882"/>
      <point x="176" y="754" type="curve" smooth="yes"/>
      <point x="136" y="438"/>
      <point x="624" y="464"/>
      <point x="602" y="286" type="curve" smooth="yes"/>
      <point x="596" y="236"/>
      <point x="546" y="186"/>
      <point x="448" y="186" type="curve" smooth="yes"/>
      <point x="364" y="186"/>
      <point x="272" y="202"/>
      <point x="154" y="250" type="curve" name="hr00"/>
      <point x="66" y="64" type="line"/>
      <point x="236" y="-10"/>
      <point x="364" y="-20"/>
    </contour>
  </outline>
</glyph>
<glyph name="w" format="2">
  <advance width="1744"/>
  <unicode hex="0077"/>
  <anchor x="882" y="0" name="bottom"/>
  <anchor x="984" y="1034" name="top"/>
  <outline>
    <contour>
      <point x="1068" y="0" type="line" name="hr00"/>
      <point x="1366" y="0" type="line"/>
      <point x="1848" y="1020" type="line"/>
      <point x="1566" y="1034" type="line"/>
      <point x="1270" y="302" type="line"/>
      <point x="1248" y="242" type="line"/>
      <point x="1242" y="302" type="line"/>
      <point x="1124" y="1034" type="line"/>
      <point x="828" y="1034" type="line"/>
    </contour>
    <contour>
      <point x="404" y="0" type="line"/>
      <point x="696" y="0" type="line"/>
      <point x="790" y="174" type="line"/>
      <point x="884" y="346"/>
      <point x="852" y="578"/>
      <point x="802" y="694" type="curve"/>
      <point x="606" y="302" type="line"/>
      <point x="584" y="242" type="line"/>
      <point x="578" y="302" type="line"/>
      <point x="460" y="1034" type="line"/>
      <point x="166" y="1034" type="line"/>
    </contour>
  </outline>
</glyph>
<glyph name="x" format="2">
  <advance width="1028"/>
  <unicode hex="0078"/>
  <anchor x="500" y="0" name="bottom"/>
  <anchor x="638" y="1034" name="top"/>
  <outline>
    <contour>
      <point x="694" y="0" type="curve"/>
      <point x="1006" y="0" type="line"/>
      <point x="706" y="512" type="line"/>
      <point x="1100" y="1020" type="line"/>
      <point x="808" y="1034" type="line"/>
      <point x="614" y="744" type="line"/>
      <point x="594" y="702" type="line"/>
      <point x="586" y="744" type="line"/>
      <point x="466" y="1034" type="line"/>
      <point x="148" y="1034" type="line" name="hr00"/>
      <point x="432" y="500" type="line"/>
      <point x="522" y="334"/>
      <point x="612" y="166"/>
    </contour>
    <contour>
      <point x="4" y="0" type="line"/>
      <point x="306" y="0" type="line"/>
      <point x="396" y="136" type="line"/>
      <point x="466" y="250"/>
      <point x="410" y="376"/>
      <point x="366" y="440" type="curve"/>
    </contour>
  </outline>
</glyph>
<glyph name="y" format="2">
  <advance width="1200"/>
  <unicode hex="0079"/>
  <anchor x="966" y="0" name="bottom"/>
  <anchor x="700" y="1034" name="top"/>
  <outline>
    <contour>
      <point x="192" y="-496" type="curve"/>
      <point x="466" y="-496"/>
      <point x="564" y="-322"/>
      <point x="740" y="22" type="curve"/>
      <point x="1222" y="1020" type="line"/>
      <point x="944" y="1034" type="line"/>
      <point x="530" y="74" type="line"/>
      <point x="422" y="-164"/>
      <point x="358" y="-292"/>
      <point x="218" y="-292" type="curve" name="hr00"/>
      <point x="180" y="-292"/>
      <point x="146" y="-290"/>
      <point x="100" y="-278" type="curve"/>
      <point x="14" y="-458" type="line"/>
      <point x="76" y="-486"/>
      <point x="138" y="-494"/>
    </contour>
    <contour>
      <point x="404" y="26" type="line"/>
      <point x="486" y="140"/>
      <point x="570" y="388"/>
      <point x="538" y="562" type="curve"/>
      <point x="456" y="1034" type="line"/>
      <point x="156" y="1034" type="line"/>
    </contour>
  </outline>
</glyph>
<glyph name="braceleft" format="2">
  <advance width="806"/>
  <unicode hex="007B"/>
  <outline>
    <contour>
      <point x="634" y="-352" type="curve"/>
      <point x="782" y="-220" type="line"/>
      <point x="630" y="-70"/>
      <point x="592" y="70"/>
      <point x="608" y="336" type="curve"/>
      <point x="614" y="446"/>
      <point x="566" y="530"/>
      <point x="486" y="586" type="curve"/>
      <point x="444" y="606" type="line"/>
      <point x="494" y="628" type="line"/>
      <point x="584" y="684"/>
      <point x="654" y="768"/>
      <point x="674" y="878" type="curve"/>
      <point x="724" y="1126"/>
      <point x="794" y="1254"/>
      <point x="982" y="1404" type="curve"/>
      <point x="866" y="1534" type="line"/>
      <point x="602" y="1370"/>
      <point x="492" y="1186"/>
      <point x="428" y="850" type="curve" name="hr00"/>
      <point x="408" y="756"/>
      <point x="314" y="702"/>
      <point x="208" y="684" type="curve"/>
      <point x="192" y="540" type="line"/>
      <point x="292" y="522"/>
      <point x="368" y="468"/>
      <point x="364" y="374" type="curve"/>
      <point x="342" y="14"/>
      <point x="402" y="-182"/>
    </contour>
  </outline>
</glyph>
<glyph name="cent" format="2">
  <advance width="854"/>
  <unicode hex="00A2"/>
  <outline>
    <contour>
      <point x="454" y="-28" type="line"/>
      <point x="650" y="-28" type="line"/>
      <point x="674" y="170" type="line"/>
      <point x="736" y="180"/>
      <point x="810" y="200"/>
      <point x="890" y="236" type="curve"/>
      <point x="844" y="420" type="line"/>
      <point x="754" y="386"/>
      <point x="692" y="372"/>
      <point x="636" y="372" type="curve" smooth="yes"/>
      <point x="492" y="372"/>
      <point x="412" y="500"/>
      <point x="438" y="710" type="curve" smooth="yes"/>
      <point x="464" y="918"/>
      <point x="576" y="1046"/>
      <point x="720" y="1046" type="curve" smooth="yes"/>
      <point x="764" y="1046"/>
      <point x="828" y="1038"/>
      <point x="890" y="1022" type="curve"/>
      <point x="982" y="1208" type="line"/>
      <point x="926" y="1230"/>
      <point x="864" y="1242"/>
      <point x="806" y="1248" type="curve" name="hr00"/>
      <point x="828" y="1432" type="line"/>
      <point x="632" y="1432" type="line"/>
      <point x="608" y="1236" type="line"/>
      <point x="380" y="1188"/>
      <point x="180" y="1012"/>
      <point x="142" y="710" type="curve" smooth="yes"/>
      <point x="102" y="388"/>
      <point x="262" y="224"/>
      <point x="478" y="178" type="curve"/>
    </contour>
  </outline>
</glyph>
<glyph name="yen" format="2">
  <advance width="1320"/>
  <unicode hex="00A5"/>
  <outline>
    <contour>
      <point x="510" y="0" type="line"/>
      <point x="786" y="0" type="line"/>
      <point x="816" y="256" type="line"/>
      <point x="1102" y="256" type="line"/>
      <point x="1118" y="390" type="line"/>
      <point x="832" y="390" type="line"/>
      <point x="846" y="504" type="line"/>
      <point x="1132" y="504" type="line"/>
      <point x="1150" y="638" type="line"/>
      <point x="864" y="638" type="line"/>
      <point x="868" y="678" type="line" name="hr00"/>
      <point x="498" y="1454" type="line"/>
      <point x="186" y="1454" type="line"/>
      <point x="588" y="644" type="line"/>
      <point x="588" y="638" type="line"/>
      <point x="300" y="638" type="line"/>
      <point x="282" y="504" type="line"/>
      <point x="570" y="504" type="line"/>
      <point x="556" y="390" type="line"/>
      <point x="268" y="390" type="line"/>
      <point x="252" y="256" type="line"/>
      <point x="540" y="256" type="line"/>
    </contour>
    <contour>
      <point x="938" y="754" type="curve"/>
      <point x="1448" y="1454" type="line"/>
      <point x="1140" y="1454" type="line"/>
      <point x="910" y="1114" type="line"/>
      <point x="826" y="986"/>
      <point x="894" y="822"/>
    </contour>
  </outline>
</glyph>
<glyph name="section" format="2">
  <advance width="1000"/>
  <unicode hex="00A7"/>
  <outline>
    <contour>
      <point x="490" y="-102" type="curve" smooth="yes"/>
      <point x="720" y="-102"/>
      <point x="926" y="14"/>
      <point x="948" y="188" type="curve" smooth="yes"/>
      <point x="960" y="284"/>
      <point x="922" y="352"/>
      <point x="864" y="406" type="curve"/>
      <point x="828" y="428" type="line"/>
      <point x="876" y="448" type="line"/>
      <point x="956" y="496"/>
      <point x="1012" y="566"/>
      <point x="1022" y="650" type="curve" smooth="yes" name="hr00"/>
      <point x="1066" y="996"/>
      <point x="460" y="956"/>
      <point x="486" y="1172" type="curve" smooth="yes"/>
      <point x="494" y="1228"/>
      <point x="564" y="1258"/>
      <point x="678" y="1258" type="curve" smooth="yes"/>
      <point x="744" y="1258"/>
      <point x="812" y="1248"/>
      <point x="910" y="1220" type="curve"/>
      <point x="1002" y="1388" type="line"/>
      <point x="872" y="1428"/>
      <point x="766" y="1440"/>
      <point x="676" y="1440" type="curve" smooth="yes"/>
      <point x="446" y="1440"/>
      <point x="266" y="1322"/>
      <point x="246" y="1170" type="curve" smooth="yes"/>
      <point x="234" y="1070"/>
      <point x="274" y="1000"/>
      <point x="340" y="946" type="curve"/>
      <point x="376" y="926" type="line"/>
      <point x="332" y="908" type="line"/>
      <point x="248" y="856"/>
      <point x="180" y="780"/>
      <point x="172" y="704" type="curve" smooth="yes"/>
      <point x="128" y="358"/>
      <point x="734" y="402"/>
      <point x="708" y="186" type="curve" smooth="yes"/>
      <point x="698" y="110"/>
      <point x="602" y="80"/>
      <point x="488" y="80" type="curve" smooth="yes"/>
      <point x="390" y="80"/>
      <point x="274" y="104"/>
      <point x="162" y="150" type="curve"/>
      <point x="70" y="-18" type="line"/>
      <point x="208" y="-86"/>
      <point x="400" y="-102"/>
    </contour>
    <contour>
      <point x="688" y="512" type="curve"/>
      <point x="542" y="576"/>
      <point x="392" y="618"/>
      <point x="404" y="714" type="curve" smooth="yes"/>
      <point x="412" y="768"/>
      <point x="446" y="802"/>
      <point x="518" y="844" type="curve"/>
      <point x="660" y="784"/>
      <point x="802" y="744"/>
      <point x="792" y="660" type="curve" smooth="yes"/>
      <point x="786" y="608"/>
      <point x="754" y="558"/>
    </contour>
  </outline>
</glyph>
<glyph name="copyright" format="2">
  <advance width="1440"/>
  <unicode hex="00A9"/>
  <outline>
    <contour>
      <point x="718" y="42" type="curve" smooth="yes"/>
      <point x="1102" y="42"/>
      <point x="1420" y="352"/>
      <point x="1464" y="714" type="curve" smooth="yes"/>
      <point x="1512" y="1100"/>
      <point x="1276" y="1380"/>
      <point x="882" y="1380" type="curve" name="hr00"/>
      <point x="494" y="1380"/>
      <point x="174" y="1070"/>
      <point x="130" y="714" type="curve" smooth="yes"/>
      <point x="82" y="322"/>
      <point x="320" y="42"/>
    </contour>
    <contour>
      <point x="796" y="352" type="curve"/>
      <point x="838" y="352"/>
      <point x="908" y="362"/>
      <point x="986" y="398" type="curve"/>
      <point x="958" y="518" type="line"/>
      <point x="894" y="490"/>
      <point x="850" y="484"/>
      <point x="812" y="484" type="curve"/>
      <point x="710" y="484"/>
      <point x="654" y="584"/>
      <point x="670" y="714" type="curve"/>
      <point x="686" y="842"/>
      <point x="768" y="940"/>
      <point x="868" y="940" type="curve"/>
      <point x="908" y="940"/>
      <point x="942" y="934"/>
      <point x="988" y="918" type="curve"/>
      <point x="1048" y="1046" type="line"/>
      <point x="994" y="1064"/>
      <point x="934" y="1074"/>
      <point x="884" y="1074" type="curve"/>
      <point x="694" y="1074"/>
      <point x="524" y="946"/>
      <point x="494" y="714" type="curve"/>
      <point x="466" y="480"/>
      <point x="602" y="352"/>
    </contour>
    <contour>
      <point x="738" y="198" type="curve"/>
      <point x="466" y="198"/>
      <point x="276" y="394"/>
      <point x="314" y="708" type="curve" smooth="yes"/>
      <point x="352" y="1026"/>
      <point x="592" y="1226"/>
      <point x="864" y="1226" type="curve"/>
      <point x="1130" y="1226"/>
      <point x="1318" y="1026"/>
      <point x="1280" y="714" type="curve" smooth="yes"/>
      <point x="1242" y="394"/>
      <point x="1004" y="198"/>
    </contour>
  </outline>
</glyph>
<glyph name="ordfeminine" format="2">
  <advance width="1054"/>
  <unicode hex="00AA"/>
  <outline>
    <contour>
      <point x="374" y="590" type="curve" smooth="yes"/>
      <point x="456" y="590"/>
      <point x="532" y="622"/>
      <point x="588" y="676" type="curve"/>
      <point x="606" y="700" type="line"/>
      <point x="606" y="676" type="line"/>
      <point x="614" y="646"/>
      <point x="624" y="624"/>
      <point x="644" y="604" type="curve"/>
      <point x="784" y="604" type="line"/>
      <point x="778" y="654"/>
      <point x="776" y="732"/>
      <point x="790" y="844" type="curve" name="hr00"/>
      <point x="816" y="1044" type="line"/>
      <point x="838" y="1232"/>
      <point x="744" y="1342"/>
      <point x="534" y="1342" type="curve" smooth="yes"/>
      <point x="472" y="1342"/>
      <point x="392" y="1334"/>
      <point x="298" y="1294" type="curve"/>
      <point x="324" y="1176" type="line"/>
      <point x="384" y="1198"/>
      <point x="442" y="1206"/>
      <point x="492" y="1206" type="curve" smooth="yes"/>
      <point x="588" y="1206"/>
      <point x="652" y="1164"/>
      <point x="638" y="1054" type="curve"/>
      <point x="608" y="802" type="line"/>
      <point x="552" y="742"/>
      <point x="488" y="716"/>
      <point x="426" y="716" type="curve" smooth="yes"/>
      <point x="374" y="716"/>
      <point x="346" y="752"/>
      <point x="350" y="798" type="curve" smooth="yes"/>
      <point x="356" y="846"/>
      <point x="390" y="882"/>
      <point x="470" y="896" type="curve" smooth="yes"/>
      <point x="544" y="910"/>
      <point x="576" y="996"/>
      <point x="586" y="1028" type="curve"/>
      <point x="294" y="996"/>
      <point x="182" y="920"/>
      <point x="166" y="788" type="curve" smooth="yes"/>
      <point x="150" y="662"/>
      <point x="244" y="590"/>
    </contour>
  </outline>
</glyph>
<glyph name="degree" format="2">
  <advance width="674"/>
  <unicode hex="00B0"/>
  <outline>
    <contour>
      <point x="466" y="946" type="curve" smooth="yes"/>
      <point x="628" y="946"/>
      <point x="792" y="1072"/>
      <point x="814" y="1246" type="curve" smooth="yes"/>
      <point x="836" y="1430"/>
      <point x="700" y="1546"/>
      <point x="538" y="1546" type="curve" smooth="yes"/>
      <point x="376" y="1546"/>
      <point x="212" y="1420"/>
      <point x="190" y="1246" type="curve" smooth="yes"/>
      <point x="168" y="1062"/>
      <point x="304" y="946"/>
    </contour>
    <contour>
      <point x="484" y="1092" type="curve" smooth="yes"/>
      <point x="406" y="1092"/>
      <point x="348" y="1146"/>
      <point x="360" y="1246" type="curve" smooth="yes" name="hr00"/>
      <point x="372" y="1346"/>
      <point x="444" y="1402"/>
      <point x="522" y="1402" type="curve" smooth="yes"/>
      <point x="600" y="1402"/>
      <point x="658" y="1346"/>
      <point x="646" y="1246" type="curve" smooth="yes"/>
      <point x="634" y="1146"/>
      <point x="562" y="1092"/>
    </contour>
  </outline>
</glyph>
<glyph name="plusminus" format="2">
  <advance width="1136"/>
  <unicode hex="00B1"/>
  <outline>
    <contour>
      <point x="488" y="284" type="line"/>
      <point x="700" y="284" type="line"/>
      <point x="736" y="574" type="line"/>
      <point x="1100" y="574" type="line"/>
      <point x="1124" y="766" type="line"/>
      <point x="760" y="766" type="line"/>
      <point x="794" y="1052" type="line"/>
      <point x="582" y="1052" type="line"/>
      <point x="548" y="766" type="line"/>
      <point x="188" y="766" type="line" name="hr00"/>
      <point x="164" y="574" type="line"/>
      <point x="524" y="574" type="line"/>
    </contour>
    <contour>
      <point x="94" y="0" type="line"/>
      <point x="1030" y="0" type="line"/>
      <point x="1054" y="196" type="line"/>
      <point x="118" y="196" type="line"/>
    </contour>
  </outline>
</glyph>
<glyph name="twosuperior" format="2">
  <advance width="804"/>
  <unicode hex="00B2"/>
  <outline>
    <contour>
      <point x="214" y="620" type="line"/>
      <point x="744" y="620" type="line"/>
      <point x="762" y="768" type="line"/>
      <point x="476" y="768" type="line"/>
      <point x="448" y="764" type="line"/>
      <point x="470" y="784" type="line"/>
      <point x="594" y="940"/>
      <point x="804" y="1064"/>
      <point x="828" y="1256" type="curve" smooth="yes" name="hr00"/>
      <point x="844" y="1394"/>
      <point x="738" y="1472"/>
      <point x="582" y="1472" type="curve" smooth="yes"/>
      <point x="518" y="1472"/>
      <point x="430" y="1460"/>
      <point x="354" y="1422" type="curve"/>
      <point x="396" y="1304" type="line"/>
      <point x="440" y="1322"/>
      <point x="486" y="1334"/>
      <point x="532" y="1334" type="curve"/>
      <point x="610" y="1334"/>
      <point x="654" y="1300"/>
      <point x="648" y="1242" type="curve"/>
      <point x="630" y="1094"/>
      <point x="394" y="956"/>
      <point x="224" y="710" type="curve"/>
    </contour>
  </outline>
</glyph>
<glyph name="micro" format="2">
  <advance width="1106"/>
  <unicode hex="00B5"/>
  <outline>
    <contour>
      <point x="60" y="-422" type="line"/>
      <point x="304" y="-422" type="line"/>
      <point x="356" y="14" type="line"/>
      <point x="360" y="62" type="line"/>
      <point x="384" y="28" type="line"/>
      <point x="422" y="-4"/>
      <point x="482" y="-20"/>
      <point x="526" y="-20" type="curve" smooth="yes"/>
      <point x="644" y="-20"/>
      <point x="724" y="22"/>
      <point x="792" y="104" type="curve"/>
      <point x="814" y="142" type="line"/>
      <point x="820" y="106" type="line"/>
      <point x="850" y="20"/>
      <point x="936" y="-16"/>
      <point x="1004" y="-16" type="curve" smooth="yes"/>
      <point x="1034" y="-16"/>
      <point x="1104" y="-8"/>
      <point x="1150" y="10" type="curve"/>
      <point x="1148" y="180" type="line"/>
      <point x="1064" y="176"/>
      <point x="1042" y="216"/>
      <point x="1056" y="328" type="curve" smooth="yes"/>
      <point x="1142" y="1034" type="line"/>
      <point x="884" y="1034" type="line"/>
      <point x="806" y="398" type="line" smooth="yes"/>
      <point x="790" y="270"/>
      <point x="692" y="176"/>
      <point x="568" y="176" type="curve" smooth="yes" name="hr01"/>
      <point x="462" y="176"/>
      <point x="400" y="262"/>
      <point x="418" y="420" type="curve" smooth="yes"/>
      <point x="494" y="1034" type="line"/>
      <point x="238" y="1034" type="line"/>
    </contour>
  </outline>
</glyph>
<glyph name="ordmasculine" format="2">
  <advance width="860"/>
  <unicode hex="00BA"/>
  <outline>
    <contour>
      <point x="500" y="588" type="curve" smooth="yes"/>
      <point x="744" y="588"/>
      <point x="880" y="766"/>
      <point x="904" y="966" type="curve" smooth="yes"/>
      <point x="930" y="1184"/>
      <point x="828" y="1342"/>
      <point x="592" y="1342" type="curve" name="hr00"/>
      <point x="360" y="1342"/>
      <point x="214" y="1174"/>
      <point x="188" y="966" type="curve" smooth="yes"/>
      <point x="158" y="724"/>
      <point x="282" y="588"/>
    </contour>
    <contour>
      <point x="516" y="728" type="curve"/>
      <point x="394" y="728"/>
      <point x="358" y="838"/>
      <point x="374" y="966" type="curve" smooth="yes"/>
      <point x="390" y="1104"/>
      <point x="466" y="1204"/>
      <point x="574" y="1204" type="curve" smooth="yes"/>
      <point x="688" y="1204"/>
      <point x="736" y="1106"/>
      <point x="720" y="966" type="curve" smooth="yes"/>
      <point x="702" y="828"/>
      <point x="632" y="728"/>
    </contour>
  </outline>
</glyph>
<glyph name="onequarter" format="2">
  <advance width="1396"/>
  <unicode hex="00BC"/>
  <outline>
    <contour>
      <point x="132" y="0" type="line" name="hr00"/>
      <point x="348" y="0" type="line"/>
      <point x="1398" y="1454" type="line"/>
      <point x="1182" y="1454" type="line"/>
    </contour>
    <contour>
      <point x="288" y="618" type="line"/>
      <point x="486" y="618" type="line"/>
      <point x="590" y="1454" type="line"/>
      <point x="494" y="1454" type="line"/>
      <point x="190" y="1302" type="line"/>
      <point x="246" y="1174" type="line"/>
      <point x="364" y="1228" type="line"/>
    </contour>
    <contour>
      <point x="1068" y="0" type="line"/>
      <point x="1236" y="0" type="line"/>
      <point x="1256" y="164" type="line"/>
      <point x="1352" y="164" type="line"/>
      <point x="1368" y="302" type="line"/>
      <point x="1272" y="302" type="line"/>
      <point x="1338" y="846" type="line"/>
      <point x="1152" y="846" type="line"/>
      <point x="710" y="286" type="line"/>
      <point x="696" y="164" type="line"/>
      <point x="1038" y="164" type="line"/>
      <point x="1024" y="224"/>
      <point x="1000" y="302"/>
      <point x="936" y="302" type="curve"/>
      <point x="920" y="302" type="line"/>
      <point x="896" y="302" type="line"/>
      <point x="912" y="322" type="line"/>
      <point x="1102" y="558" type="line"/>
      <point x="1142" y="608" type="line"/>
      <point x="1136" y="558" type="line"/>
    </contour>
  </outline>
</glyph>
<glyph name="onehalf" format="2">
  <advance width="1526"/>
  <unicode hex="00BD"/>
  <outline>
    <contour>
      <point x="132" y="0" type="line" name="hr00"/>
      <point x="348" y="0" type="line"/>
      <point x="1398" y="1454" type="line"/>
      <point x="1182" y="1454" type="line"/>
    </contour>
    <contour>
      <point x="288" y="618" type="line"/>
      <point x="486" y="618" type="line"/>
      <point x="590" y="1454" type="line"/>
      <point x="494" y="1454" type="line"/>
      <point x="190" y="1302" type="line"/>
      <point x="246" y="1174" type="line"/>
      <point x="364" y="1228" type="line"/>
    </contour>
    <contour>
      <point x="844" y="0" type="line"/>
      <point x="1374" y="0" type="line"/>
      <point x="1392" y="148" type="line"/>
      <point x="1114" y="148" type="line"/>
      <point x="1078" y="144" type="line"/>
      <point x="1102" y="168" type="line"/>
      <point x="1226" y="324"/>
      <point x="1434" y="444"/>
      <point x="1458" y="636" type="curve" smooth="yes"/>
      <point x="1474" y="774"/>
      <point x="1368" y="852"/>
      <point x="1212" y="852" type="curve" smooth="yes"/>
      <point x="1148" y="852"/>
      <point x="1060" y="840"/>
      <point x="984" y="802" type="curve"/>
      <point x="1024" y="684" type="line"/>
      <point x="1070" y="702"/>
      <point x="1116" y="714"/>
      <point x="1162" y="714" type="curve" smooth="yes"/>
      <point x="1240" y="714"/>
      <point x="1284" y="680"/>
      <point x="1278" y="622" type="curve" smooth="yes"/>
      <point x="1260" y="474"/>
      <point x="1024" y="336"/>
      <point x="854" y="90" type="curve"/>
    </contour>
  </outline>
</glyph>
<glyph name="threequarters" format="2">
  <advance width="1432"/>
  <unicode hex="00BE"/>
  <outline>
    <contour>
      <point x="204" y="0" type="line"/>
      <point x="420" y="0" type="line"/>
      <point x="1470" y="1454" type="line"/>
      <point x="1254" y="1454" type="line"/>
    </contour>
    <contour>
      <point x="328" y="602" type="curve" smooth="yes"/>
      <point x="512" y="602"/>
      <point x="666" y="700"/>
      <point x="686" y="860" type="curve" smooth="yes"/>
      <point x="702" y="980"/>
      <point x="620" y="1058"/>
      <point x="532" y="1080" type="curve"/>
      <point x="628" y="1122"/>
      <point x="700" y="1192"/>
      <point x="710" y="1276" type="curve" smooth="yes"/>
      <point x="726" y="1410"/>
      <point x="618" y="1470"/>
      <point x="472" y="1470" type="curve" smooth="yes"/>
      <point x="406" y="1470"/>
      <point x="336" y="1458"/>
      <point x="256" y="1420" type="curve"/>
      <point x="290" y="1302" type="line"/>
      <point x="348" y="1320"/>
      <point x="396" y="1330"/>
      <point x="442" y="1330" type="curve" smooth="yes" name="hr02"/>
      <point x="500" y="1330"/>
      <point x="532" y="1294"/>
      <point x="528" y="1262" type="curve"/>
      <point x="520" y="1200"/>
      <point x="468" y="1166"/>
      <point x="392" y="1136" type="curve" smooth="yes"/>
      <point x="326" y="1110" type="line"/>
      <point x="326" y="998" type="line" name="hr01"/>
      <point x="462" y="998"/>
      <point x="518" y="950"/>
      <point x="508" y="866" type="curve" smooth="yes"/>
      <point x="498" y="796"/>
      <point x="434" y="742"/>
      <point x="344" y="742" type="curve" smooth="yes"/>
      <point x="290" y="742"/>
      <point x="234" y="760"/>
      <point x="188" y="780" type="curve"/>
      <point x="130" y="658" type="line"/>
      <point x="166" y="634"/>
      <point x="246" y="602"/>
    </contour>
    <contour>
      <point x="1140" y="0" type="line"/>
      <point x="1308" y="0" type="line"/>
      <point x="1328" y="164" type="line"/>
      <point x="1424" y="164" type="line"/>
      <point x="1440" y="302" type="line"/>
      <point x="1344" y="302" type="line"/>
      <point x="1410" y="846" type="line"/>
      <point x="1224" y="846" type="line"/>
      <point x="782" y="286" type="line"/>
      <point x="768" y="164" type="line"/>
      <point x="1110" y="164" type="line"/>
      <point x="1096" y="224"/>
      <point x="1072" y="302"/>
      <point x="1008" y="302" type="curve"/>
      <point x="968" y="302" type="line"/>
      <point x="1214" y="608" type="line"/>
    </contour>
  </outline>
</glyph>
<glyph name="questiondown" format="2">
  <advance width="1166"/>
  <unicode hex="00BF"/>
  <outline>
    <contour>
      <point x="574" y="-442" type="curve" smooth="yes" name="hr00"/>
      <point x="684" y="-442"/>
      <point x="788" y="-426"/>
      <point x="944" y="-360" type="curve"/>
      <point x="896" y="-172" type="line"/>
      <point x="762" y="-226"/>
      <point x="696" y="-234"/>
      <point x="620" y="-234" type="curve"/>
      <point x="506" y="-234"/>
      <point x="438" y="-176"/>
      <point x="448" y="-86" type="curve" smooth="yes"/>
      <point x="472" y="112"/>
      <point x="820" y="208"/>
      <point x="866" y="572" type="curve"/>
      <point x="630" y="572" type="line"/>
      <point x="596" y="308"/>
      <point x="194" y="166"/>
      <point x="158" y="-116" type="curve" smooth="yes"/>
      <point x="134" y="-324"/>
      <point x="308" y="-442"/>
    </contour>
    <contour>
      <point x="766" y="728" type="curve" smooth="yes"/>
      <point x="860" y="728"/>
      <point x="942" y="804"/>
      <point x="954" y="896" type="curve" smooth="yes"/>
      <point x="964" y="988"/>
      <point x="902" y="1060"/>
      <point x="808" y="1060" type="curve" smooth="yes"/>
      <point x="716" y="1060"/>
      <point x="634" y="988"/>
      <point x="624" y="896" type="curve" smooth="yes"/>
      <point x="612" y="804"/>
      <point x="674" y="728"/>
    </contour>
  </outline>
</glyph>
<glyph name="multiply" format="2">
  <advance width="1136"/>
  <unicode hex="00D7"/>
  <outline>
    <contour>
      <point x="242" y="128" type="line"/>
      <point x="618" y="460" type="line"/>
      <point x="908" y="128" type="line"/>
      <point x="1078" y="278" type="line"/>
      <point x="786" y="612" type="line"/>
      <point x="1154" y="942" type="line"/>
      <point x="1024" y="1092" type="line"/>
      <point x="654" y="762" type="line"/>
      <point x="364" y="1092" type="line"/>
      <point x="192" y="942" type="line"/>
      <point x="484" y="612" type="line"/>
      <point x="112" y="278" type="line" name="hr00"/>
    </contour>
  </outline>
</glyph>
<glyph name="Thorn" format="2">
  <advance width="1218"/>
  <unicode hex="00DE"/>
  <anchor x="278" y="0" name="bottom"/>
  <anchor x="456" y="1454" name="top"/>
  <outline>
    <contour>
      <point x="142" y="0" type="line"/>
      <point x="414" y="0" type="line"/>
      <point x="532" y="976" type="line"/>
      <point x="606" y="984"/>
      <point x="630" y="988"/>
      <point x="702" y="988" type="curve" smooth="yes"/>
      <point x="868" y="988"/>
      <point x="966" y="876"/>
      <point x="948" y="728" type="curve" smooth="yes"/>
      <point x="932" y="588"/>
      <point x="828" y="480"/>
      <point x="716" y="470" type="curve" smooth="yes"/>
      <point x="626" y="462"/>
      <point x="562" y="364"/>
      <point x="522" y="288" type="curve"/>
      <point x="594" y="266"/>
      <point x="662" y="264"/>
      <point x="722" y="270" type="curve" smooth="yes"/>
      <point x="962" y="292"/>
      <point x="1208" y="452"/>
      <point x="1242" y="728" type="curve" smooth="yes" name="hr00"/>
      <point x="1278" y="1022"/>
      <point x="1052" y="1194"/>
      <point x="728" y="1194" type="curve" smooth="yes"/>
      <point x="668" y="1194"/>
      <point x="616" y="1192"/>
      <point x="558" y="1188" type="curve"/>
      <point x="592" y="1454" type="line"/>
      <point x="320" y="1454" type="line"/>
    </contour>
  </outline>
</glyph>
<glyph name="ae" format="2">
  <advance width="1700"/>
  <unicode hex="00E6"/>
  <anchor x="810" y="0" name="bottom"/>
  <anchor x="956" y="1034" name="top"/>
  <outline>
    <contour>
      <point x="410" y="-26" type="curve" smooth="yes"/>
      <point x="544" y="-26"/>
      <point x="736" y="52"/>
      <point x="842" y="242" type="curve"/>
      <point x="870" y="114"/>
      <point x="1010" y="-26"/>
      <point x="1198" y="-26" type="curve" smooth="yes"/>
      <point x="1322" y="-26"/>
      <point x="1450" y="0"/>
      <point x="1602" y="68" type="curve"/>
      <point x="1554" y="254" type="line"/>
      <point x="1432" y="202"/>
      <point x="1346" y="180"/>
      <point x="1254" y="180" type="curve" smooth="yes"/>
      <point x="1086" y="180"/>
      <point x="988" y="314"/>
      <point x="1016" y="544" type="curve" smooth="yes"/>
      <point x="1044" y="772"/>
      <point x="1180" y="866"/>
      <point x="1290" y="866" type="curve" smooth="yes"/>
      <point x="1412" y="866"/>
      <point x="1468" y="756"/>
      <point x="1436" y="634" type="curve"/>
      <point x="1258" y="634" type="line" smooth="yes"/>
      <point x="1190" y="634"/>
      <point x="1122" y="562"/>
      <point x="1082" y="470" type="curve"/>
      <point x="1642" y="470" type="line"/>
      <point x="1802" y="814"/>
      <point x="1624" y="1060"/>
      <point x="1328" y="1060" type="curve" smooth="yes" name="hr02"/>
      <point x="1190" y="1060"/>
      <point x="1028" y="974"/>
      <point x="936" y="840" type="curve"/>
      <point x="878" y="982"/>
      <point x="754" y="1056"/>
      <point x="628" y="1056" type="curve" smooth="yes" name="hr01"/>
      <point x="534" y="1056"/>
      <point x="396" y="1034"/>
      <point x="272" y="980" type="curve"/>
      <point x="318" y="804" type="line"/>
      <point x="416" y="838"/>
      <point x="492" y="850"/>
      <point x="558" y="850" type="curve" smooth="yes"/>
      <point x="698" y="850"/>
      <point x="766" y="760"/>
      <point x="750" y="622" type="curve" smooth="yes"/>
      <point x="738" y="530" type="line" smooth="yes"/>
      <point x="712" y="324"/>
      <point x="610" y="180"/>
      <point x="470" y="180" type="curve" smooth="yes"/>
      <point x="400" y="180"/>
      <point x="350" y="232"/>
      <point x="358" y="302" type="curve" smooth="yes"/>
      <point x="366" y="368"/>
      <point x="418" y="424"/>
      <point x="520" y="440" type="curve"/>
      <point x="604" y="456"/>
      <point x="652" y="532"/>
      <point x="678" y="626" type="curve"/>
      <point x="252" y="594"/>
      <point x="108" y="442"/>
      <point x="86" y="276" type="curve"/>
      <point x="64" y="88"/>
      <point x="196" y="-26"/>
    </contour>
  </outline>
</glyph>
<glyph name="thorn" format="2">
  <advance width="1196"/>
  <unicode hex="00FE"/>
  <anchor x="218" y="-482" name="bottom"/>
  <anchor x="464" y="1516" name="top"/>
  <outline>
    <contour>
      <point x="86" y="-482" type="line"/>
      <point x="350" y="-482" type="line"/>
      <point x="408" y="-16" type="line"/>
      <point x="458" y="-26"/>
      <point x="512" y="-30"/>
      <point x="568" y="-30" type="curve" smooth="yes"/>
      <point x="906" y="-30"/>
      <point x="1148" y="228"/>
      <point x="1190" y="554" type="curve" smooth="yes"/>
      <point x="1218" y="794"/>
      <point x="1092" y="1052"/>
      <point x="838" y="1052" type="curve" smooth="yes"/>
      <point x="770" y="1052"/>
      <point x="684" y="1036"/>
      <point x="604" y="1004" type="curve"/>
      <point x="634" y="922"/>
      <point x="660" y="846"/>
      <point x="750" y="850" type="curve" smooth="yes"/>
      <point x="884" y="856"/>
      <point x="906" y="682"/>
      <point x="892" y="554" type="curve" smooth="yes"/>
      <point x="864" y="334"/>
      <point x="748" y="176"/>
      <point x="592" y="176" type="curve" smooth="yes"/>
      <point x="538" y="176"/>
      <point x="494" y="180"/>
      <point x="434" y="196" type="curve"/>
      <point x="596" y="1516" type="line"/>
      <point x="332" y="1516" type="line" name="hr00"/>
    </contour>
  </outline>
</glyph>
<glyph name="OE" format="2">
  <advance width="2012"/>
  <unicode hex="0152"/>
  <anchor x="1144" y="0" name="bottom"/>
  <anchor x="1322" y="1454" name="top"/>
  <outline>
    <contour>
      <point x="806" y="-28" type="curve" smooth="yes" name="hr02"/>
      <point x="902" y="-28"/>
      <point x="996" y="0"/>
      <point x="1128" y="0" type="curve" smooth="yes"/>
      <point x="1906" y="0" type="line"/>
      <point x="1930" y="206" type="line"/>
      <point x="1312" y="206" type="line"/>
      <point x="1440" y="1248" type="line"/>
      <point x="2026" y="1248" type="line"/>
      <point x="2052" y="1454" type="line"/>
      <point x="1306" y="1454" type="line" smooth="yes" name="hr01"/>
      <point x="1184" y="1454"/>
      <point x="1100" y="1484"/>
      <point x="992" y="1484" type="curve" smooth="yes"/>
      <point x="550" y="1484"/>
      <point x="228" y="1164"/>
      <point x="174" y="728" type="curve" smooth="yes"/>
      <point x="120" y="286"/>
      <point x="354" y="-28"/>
    </contour>
    <contour>
      <point x="830" y="178" type="curve" smooth="yes"/>
      <point x="554" y="178"/>
      <point x="444" y="452"/>
      <point x="478" y="728" type="curve" smooth="yes"/>
      <point x="514" y="1024"/>
      <point x="690" y="1278"/>
      <point x="966" y="1278" type="curve" smooth="yes"/>
      <point x="1036" y="1278"/>
      <point x="1098" y="1266"/>
      <point x="1154" y="1244" type="curve"/>
      <point x="1026" y="210" type="line"/>
      <point x="966" y="188"/>
      <point x="900" y="178"/>
    </contour>
    <contour>
      <point x="1444" y="662" type="curve"/>
      <point x="1886" y="662" type="line"/>
      <point x="1912" y="864" type="line"/>
      <point x="1670" y="864" type="line" smooth="yes"/>
      <point x="1554" y="864"/>
      <point x="1482" y="750"/>
    </contour>
  </outline>
</glyph>
<glyph name="florin" format="2">
  <advance width="1048"/>
  <unicode hex="0192"/>
  <outline>
    <contour>
      <point x="-2" y="-282" type="line"/>
      <point x="234" y="-226"/>
      <point x="442" y="-114"/>
      <point x="500" y="150" type="curve"/>
      <point x="684" y="988" type="line" smooth="yes"/>
      <point x="716" y="1126"/>
      <point x="810" y="1218"/>
      <point x="940" y="1218" type="curve" smooth="yes"/>
      <point x="986" y="1218"/>
      <point x="1034" y="1208"/>
      <point x="1106" y="1186" type="curve"/>
      <point x="1208" y="1364" type="line"/>
      <point x="1114" y="1410"/>
      <point x="1022" y="1424"/>
      <point x="956" y="1424" type="curve" smooth="yes"/>
      <point x="688" y="1424"/>
      <point x="478" y="1250"/>
      <point x="420" y="988" type="curve" smooth="yes"/>
      <point x="408" y="932" type="line"/>
      <point x="232" y="892" type="line"/>
      <point x="212" y="734" type="line"/>
      <point x="366" y="734" type="line" name="hr00"/>
      <point x="240" y="166" type="line"/>
      <point x="202" y="4"/>
      <point x="104" y="-62"/>
      <point x="-26" y="-104" type="curve"/>
    </contour>
    <contour>
      <point x="698" y="734" type="curve"/>
      <point x="1004" y="734" type="line"/>
      <point x="1028" y="932" type="line"/>
      <point x="940" y="932" type="line"/>
      <point x="824" y="932"/>
      <point x="742" y="822"/>
    </contour>
  </outline>
</glyph>
<glyph name="circumflexcomb" format="2">
  <unicode hex="0302"/>
  <anchor x="442" y="1034" name="_top"/>
  <anchor x="512" y="1486" name="top"/>
  <outline>
    <contour>
      <point x="318" y="1170" type="line"/>
      <point x="488" y="1316" type="line"/>
      <point x="626" y="1170" type="line"/>
      <point x="794" y="1206" type="line"/>
      <point x="614" y="1486" type="line" name="hr00"/>
      <point x="408" y="1486" type="line"/>
      <point x="164" y="1206" type="line"/>
    </contour>
  </outline>
</glyph>
<glyph name="tildecomb" format="2">
  <unicode hex="0303"/>
  <anchor x="466" y="1034" name="_top"/>
  <anchor x="522" y="1484" name="top"/>
  <outline>
    <contour>
      <point x="318" y="1236" type="line"/>
      <point x="334" y="1304"/>
      <point x="372" y="1326"/>
      <point x="400" y="1326" type="curve" smooth="yes" name="hr02"/>
      <point x="428" y="1326"/>
      <point x="444" y="1312"/>
      <point x="470" y="1286" type="curve" smooth="yes"/>
      <point x="502" y="1254"/>
      <point x="542" y="1220"/>
      <point x="620" y="1220" type="curve" smooth="yes"/>
      <point x="696" y="1220"/>
      <point x="810" y="1288"/>
      <point x="838" y="1456" type="curve"/>
      <point x="694" y="1468" type="line"/>
      <point x="680" y="1414"/>
      <point x="654" y="1378"/>
      <point x="620" y="1378" type="curve" smooth="yes" name="hr01"/>
      <point x="594" y="1378"/>
      <point x="572" y="1396"/>
      <point x="546" y="1418" type="curve" smooth="yes"/>
      <point x="510" y="1448"/>
      <point x="466" y="1484"/>
      <point x="398" y="1484" type="curve"/>
      <point x="300" y="1482"/>
      <point x="192" y="1398"/>
      <point x="170" y="1248" type="curve"/>
    </contour>
  </outline>
</glyph>
<glyph name="dotaccentcomb" format="2">
  <unicode hex="0307"/>
  <anchor x="308" y="1034" name="_top"/>
  <anchor x="364" y="1502" name="top"/>
  <outline>
    <contour>
      <point x="324" y="1170" type="curve" smooth="yes"/>
      <point x="416" y="1170"/>
      <point x="498" y="1242"/>
      <point x="508" y="1334" type="curve" smooth="yes"/>
      <point x="520" y="1428"/>
      <point x="458" y="1502"/>
      <point x="366" y="1502" type="curve" smooth="yes"/>
      <point x="274" y="1502"/>
      <point x="192" y="1428"/>
      <point x="180" y="1334" type="curve" smooth="yes"/>
      <point x="170" y="1242"/>
      <point x="232" y="1170"/>
    </contour>
  </outline>
</glyph>
<glyph name="slashlongcomb" format="2">
  <unicode hex="0338"/>
  <anchor x="558" y="508" name="_center"/>
  <outline>
    <contour>
      <point x="476" y="256" type="curve"/>
      <point x="1114" y="1146" type="line"/>
      <point x="926" y="1146" type="line"/>
      <point x="452" y="490" type="line"/>
      <point x="394" y="396"/>
      <point x="436" y="308"/>
    </contour>
    <contour>
      <point x="0" y="-132" type="line"/>
      <point x="194" y="-132" type="line" name="hr01"/>
      <point x="310" y="32" type="line"/>
      <point x="174" y="112" type="line"/>
    </contour>
  </outline>
</glyph>
<glyph name="daggerdbl" format="2">
  <advance width="1222"/>
  <unicode hex="2021"/>
  <outline>
    <contour>
      <point x="468" y="-60" type="line"/>
      <point x="708" y="-60" type="line" name="hr00"/>
      <point x="886" y="1394" type="line"/>
      <point x="646" y="1394" type="line"/>
    </contour>
    <contour>
      <point x="84" y="310" type="line"/>
      <point x="218" y="310" type="line"/>
      <point x="348" y="310"/>
      <point x="422" y="412"/>
      <point x="468" y="512" type="curve"/>
      <point x="108" y="512" type="line"/>
    </contour>
    <contour>
      <point x="146" y="822" type="line"/>
      <point x="280" y="822" type="line"/>
      <point x="410" y="822"/>
      <point x="484" y="924"/>
      <point x="530" y="1024" type="curve"/>
      <point x="170" y="1024" type="line"/>
    </contour>
    <contour>
      <point x="1050" y="310" type="curve"/>
      <point x="1184" y="310" type="line"/>
      <point x="1208" y="512" type="line"/>
      <point x="848" y="512" type="line"/>
      <point x="870" y="412"/>
      <point x="920" y="310"/>
    </contour>
    <contour>
      <point x="1112" y="822" type="curve"/>
      <point x="1246" y="822" type="line"/>
      <point x="1270" y="1024" type="line"/>
      <point x="910" y="1024" type="line"/>
      <point x="932" y="924"/>
      <point x="982" y="822"/>
    </contour>
  </outline>
</glyph>
<glyph name="bullet" format="2">
  <advance width="1000"/>
  <unicode hex="2022"/>
  <outline>
    <contour>
      <point x="568" y="444" type="curve" smooth="yes"/>
      <point x="676" y="444"/>
      <point x="768" y="522"/>
      <point x="780" y="630" type="curve" smooth="yes"/>
      <point x="794" y="738"/>
      <point x="722" y="820"/>
      <point x="614" y="820" type="curve" smooth="yes"/>
      <point x="506" y="820"/>
      <point x="418" y="738"/>
      <point x="404" y="630" type="curve" smooth="yes" name="hr00"/>
      <point x="392" y="522"/>
      <point x="460" y="444"/>
    </contour>
  </outline>
</glyph>
<glyph name="perthousand" format="2">
  <advance width="2228"/>
  <unicode hex="2030"/>
  <outline>
    <contour>
      <point x="72" y="0" type="line"/>
      <point x="312" y="0" type="line"/>
      <point x="1606" y="1404" type="line"/>
      <point x="1366" y="1404" type="line"/>
    </contour>
    <contour>
      <point x="1134" y="-26" type="curve" smooth="yes" name="hr01"/>
      <point x="1324" y="-26"/>
      <point x="1462" y="108"/>
      <point x="1490" y="340" type="curve" smooth="yes"/>
      <point x="1520" y="572"/>
      <point x="1414" y="706"/>
      <point x="1224" y="706" type="curve" smooth="yes"/>
      <point x="1032" y="706"/>
      <point x="898" y="572"/>
      <point x="868" y="340" type="curve" smooth="yes"/>
      <point x="840" y="108"/>
      <point x="942" y="-26"/>
    </contour>
    <contour>
      <point x="1152" y="116" type="curve" smooth="yes"/>
      <point x="1086" y="116"/>
      <point x="1048" y="192"/>
      <point x="1066" y="340" type="curve" smooth="yes"/>
      <point x="1084" y="486"/>
      <point x="1140" y="564"/>
      <point x="1206" y="564" type="curve" smooth="yes"/>
      <point x="1274" y="564"/>
      <point x="1308" y="486"/>
      <point x="1290" y="340" type="curve" smooth="yes"/>
      <point x="1272" y="192"/>
      <point x="1220" y="116"/>
    </contour>
    <contour>
      <point x="438" y="702" type="curve" smooth="yes" name="hr02"/>
      <point x="628" y="702"/>
      <point x="766" y="836"/>
      <point x="794" y="1068" type="curve" smooth="yes"/>
      <point x="822" y="1300"/>
      <point x="718" y="1434"/>
      <point x="528" y="1434" type="curve" smooth="yes"/>
      <point x="336" y="1434"/>
      <point x="200" y="1300"/>
      <point x="172" y="1068" type="curve" smooth="yes"/>
      <point x="144" y="836"/>
      <point x="246" y="702"/>
    </contour>
    <contour>
      <point x="454" y="844" type="curve" smooth="yes"/>
      <point x="388" y="844"/>
      <point x="352" y="920"/>
      <point x="370" y="1068" type="curve" smooth="yes"/>
      <point x="388" y="1214"/>
      <point x="444" y="1292"/>
      <point x="510" y="1292" type="curve" smooth="yes"/>
      <point x="578" y="1292"/>
      <point x="612" y="1214"/>
      <point x="594" y="1068" type="curve" smooth="yes"/>
      <point x="576" y="920"/>
      <point x="522" y="844"/>
    </contour>
    <contour>
      <point x="1862" y="-26" type="curve" smooth="yes"/>
      <point x="2052" y="-26"/>
      <point x="2190" y="108"/>
      <point x="2218" y="340" type="curve" smooth="yes"/>
      <point x="2248" y="572"/>
      <point x="2142" y="706"/>
      <point x="1952" y="706" type="curve" smooth="yes"/>
      <point x="1760" y="706"/>
      <point x="1626" y="572"/>
      <point x="1596" y="340" type="curve" smooth="yes"/>
      <point x="1568" y="108"/>
      <point x="1670" y="-26"/>
    </contour>
    <contour>
      <point x="1880" y="116" type="curve" smooth="yes"/>
      <point x="1814" y="116"/>
      <point x="1776" y="192"/>
      <point x="1794" y="340" type="curve" smooth="yes"/>
      <point x="1812" y="486"/>
      <point x="1868" y="564"/>
      <point x="1934" y="564" type="curve" smooth="yes"/>
      <point x="2002" y="564"/>
      <point x="2036" y="486"/>
      <point x="2018" y="340" type="curve" smooth="yes"/>
      <point x="2000" y="192"/>
      <point x="1948" y="116"/>
    </contour>
  </outline>
</glyph>
<glyph name="euro" format="2">
  <advance width="1180"/>
  <unicode hex="20AC"/>
  <outline>
    <contour>
      <point x="730" y="-24" type="curve" smooth="yes" name="hr00"/>
      <point x="838" y="-24"/>
      <point x="958" y="4"/>
      <point x="1078" y="64" type="curve"/>
      <point x="1028" y="240" type="line"/>
      <point x="930" y="196"/>
      <point x="842" y="174"/>
      <point x="754" y="174" type="curve" smooth="yes"/>
      <point x="578" y="174"/>
      <point x="484" y="296"/>
      <point x="452" y="458" type="curve"/>
      <point x="440" y="490" type="line"/>
      <point x="480" y="488" type="line"/>
      <point x="972" y="488" type="line"/>
      <point x="992" y="638" type="line"/>
      <point x="440" y="638" type="line"/>
      <point x="440" y="658"/>
      <point x="442" y="678"/>
      <point x="444" y="700" type="curve" smooth="yes"/>
      <point x="478" y="966"/>
      <point x="628" y="1226"/>
      <point x="884" y="1226" type="curve" smooth="yes"/>
      <point x="972" y="1226"/>
      <point x="1038" y="1214"/>
      <point x="1146" y="1182" type="curve"/>
      <point x="1238" y="1358" type="line"/>
      <point x="1122" y="1404"/>
      <point x="1016" y="1424"/>
      <point x="908" y="1424" type="curve" smooth="yes"/>
      <point x="548" y="1424"/>
      <point x="320" y="1210"/>
      <point x="212" y="942" type="curve"/>
      <point x="48" y="942" type="line"/>
      <point x="30" y="792" type="line"/>
      <point x="168" y="792" type="line"/>
      <point x="160" y="762"/>
      <point x="156" y="730"/>
      <point x="152" y="700" type="curve" smooth="yes"/>
      <point x="150" y="678"/>
      <point x="148" y="658"/>
      <point x="148" y="638" type="curve"/>
      <point x="12" y="638" type="line"/>
      <point x="-6" y="488" type="line"/>
      <point x="150" y="488" type="line"/>
      <point x="182" y="212"/>
      <point x="348" y="-24"/>
    </contour>
    <contour>
      <point x="530" y="792" type="curve"/>
      <point x="1010" y="792" type="line"/>
      <point x="1028" y="942" type="line"/>
      <point x="722" y="942" type="line"/>
      <point x="624" y="942"/>
      <point x="566" y="868"/>
    </contour>
  </outline>
</glyph>
<glyph name="trademark" format="2">
  <advance width="1456"/>
  <unicode hex="2122"/>
  <outline>
    <contour>
      <point x="696" y="858" type="line"/>
      <point x="842" y="858" type="line"/>
      <point x="920" y="1250" type="line"/>
      <point x="928" y="1284" type="line"/>
      <point x="932" y="1250" type="line"/>
      <point x="1018" y="868" type="line"/>
      <point x="1150" y="868" type="line"/>
      <point x="1324" y="1250" type="line"/>
      <point x="1338" y="1284" type="line"/>
      <point x="1338" y="1250" type="line"/>
      <point x="1320" y="858" type="line"/>
      <point x="1468" y="858" type="line"/>
      <point x="1480" y="1456" type="line"/>
      <point x="1292" y="1456" type="line"/>
      <point x="1112" y="1058" type="line"/>
      <point x="1104" y="1032" type="line"/>
      <point x="1100" y="1058" type="line"/>
      <point x="1020" y="1456" type="line"/>
      <point x="832" y="1456" type="line"/>
    </contour>
    <contour>
      <point x="316" y="858" type="line"/>
      <point x="472" y="858" type="line"/>
      <point x="532" y="1340" type="line"/>
      <point x="688" y="1340" type="line"/>
      <point x="702" y="1456" type="line"/>
      <point x="234" y="1456" type="line"/>
      <point x="220" y="1340" type="line" name="hr00"/>
      <point x="376" y="1340" type="line"/>
    </contour>
  </outline>
</glyph>
<glyph name="circumflexcomb.case" format="2">
  <anchor x="498" y="1454" name="_top"/>
  <anchor x="538" y="1780" name="top"/>
  <outline>
    <contour>
      <point x="360" y="1512" type="line"/>
      <point x="526" y="1624" type="line"/>
      <point x="668" y="1512" type="line"/>
      <point x="836" y="1548" type="line"/>
      <point x="650" y="1780" type="line" name="hr00"/>
      <point x="444" y="1780" type="line"/>
      <point x="206" y="1548" type="line"/>
    </contour>
  </outline>
</glyph>
<glyph name="gravecomb.case" format="2">
  <anchor x="466" y="1454" name="_top"/>
  <anchor x="506" y="1780" name="top"/>
  <outline>
    <contour>
      <point x="618" y="1530" type="curve"/>
      <point x="502" y="1780" type="line"/>
      <point x="236" y="1780" type="line" name="hr00"/>
      <point x="338" y="1616" type="line"/>
      <point x="394" y="1524"/>
      <point x="548" y="1512"/>
    </contour>
  </outline>
</glyph>
<glyph name="slashlongcomb.case" format="2">
  <anchor x="718" y="730" name="_center"/>
  <outline>
    <contour>
      <point x="514" y="288" type="curve"/>
      <point x="1434" y="1578" type="line"/>
      <point x="1196" y="1578" type="line"/>
      <point x="486" y="588" type="line"/>
      <point x="412" y="470"/>
      <point x="464" y="368"/>
    </contour>
    <contour>
      <point x="2" y="-120" type="line"/>
      <point x="240" y="-120" type="line"/>
      <point x="358" y="48" type="line"/>
      <point x="194" y="150" type="line"/>
    </contour>
  </outline>
</glyph>
